<?xml version="1.0" encoding="utf-8"?>
<!-- Generator: Adobe Illustrator 20.1.0, SVG Export Plug-In . SVG Version: 6.00 Build 0)  -->
<svg version="1.1" id="Слой_5" xmlns="http://www.w3.org/2000/svg" xmlns:xlink="http://www.w3.org/1999/xlink" x="0px" y="0px"
	 viewBox="0 0 37.8 31.4" style="enable-background:new 0 0 37.8 31.4;" xml:space="preserve">
<style type="text/css">
	.st0{fill:#D82727;}
	.st1{fill:#FFFFFF;}
</style>
<title>Монтажная область 1</title>
<g id="Слой_10">
	<path class="st0" d="M0.4,25.7c0.8-0.7,2.1-1.9,2.7-2.3c0.4-0.3,0.9-0.4,1.4-0.3c0.6,0,0.7,0,1.1,0c-0.9-0.8-1.5-1.9-1.9-3
		c-0.3-0.8-0.1-1,0-1.3c-1.6-1.6-2.5-3.7-2.5-6c0-0.5,0.3-1,0.7-1.4c-0.5-1.1-0.7-2.3-0.7-3.6c0.1-1.1,0.4-2.2,0.9-3.2
		c0.2-0.5,0.6-0.9,1-1.3c0.4-0.3,1.6-1.4,2.1-1.7C5.9,1,7,1,7.6,1.7c0,0,0.1,0.1,0.1,0.1c4.1,4.7,8.4,5.5,8.4,5.5
		c0.5-1,1.1-1.9,1.8-2.7C18.6,4.1,21,2,21.6,1.5c3-2.2,7.1-2,10,0.4c1-0.2,1.9-0.6,2.8-1.1c0.8-0.5,1.8-0.3,2.3,0.5
		C37,1.9,37,2.6,36.6,3.2c1.7,0.3,1.3,1.9,0.8,2.7c-0.9,1.1-1.8,2.1-2.8,3.1c0,5.9-2.5,11.5-6.9,15.4c-0.6,0.6-3.3,2.8-4.4,3.6
		c-3.5,2.4-7.7,3.6-12,3.4c-3.7,0-7.2-1.1-10.3-3C0.1,28-0.2,27,0.2,26.1C0.2,26,0.3,25.8,0.4,25.7z"/>
	<path class="st1" d="M36.2,4.8c-1.2,0.5-2.5,0.9-3.8,1c1.4-0.8,2.4-2.1,2.9-3.6c-1.3,0.8-2.7,1.3-4.2,1.6c-2.5-2.6-6.7-2.8-9.3-0.3
		c-1.7,1.6-2.4,4-1.9,6.3C14.7,9.5,9.7,7,6.4,2.9c-1.7,3-0.9,6.8,2,8.8c-1.1,0-2.1-0.3-3-0.8v0.1c0,3.1,2.2,5.8,5.3,6.4
		c-0.5,0.2-1.1,0.2-1.7,0.2c-0.4,0-0.8,0-1.2-0.1c0.9,2.7,3.3,4.5,6.1,4.5c-2.8,2.2-6.3,3.1-9.8,2.7c3,1.9,6.5,3,10.1,3
		c12.1,0,18.7-10,18.7-18.7V8.1C34.2,7.2,35.3,6.1,36.2,4.8z"/>
</g>
</svg>
