<svg id="Слой_1" data-name="Слой 1" xmlns="http://www.w3.org/2000/svg" viewBox="0 0 37.5 37.44"><defs><style>.cls-1{fill:#fff;}</style></defs><title>Монтажная область 1</title><g id="Слой_1-2" data-name="Слой 1"><path d="M7.24,5,4.7,7.59c-6.71,7-6.12,18.52,1.06,25.13,5,5,14.76,7,23.24,1a44.71,44.71,0,0,0,3.51-3.43A17.87,17.87,0,0,0,7.23,5Z"/><path class="cls-1" d="M19.87,1.63a16,16,0,0,0-6.43,30.67,14.07,14.07,0,0,1,.28-3.67l2.06-8.72a6.14,6.14,0,0,1-.51-2.53c0-2.37,1.37-4.14,3.09-4.14a2.14,2.14,0,0,1,2.16,2.4c0,1.46-.94,3.65-1.41,5.68a2.48,2.48,0,0,0,2.53,3.08c3,0,5.08-3.9,5.08-8.51,0-3.51-2.36-6.14-6.66-6.14A7.58,7.58,0,0,0,12.18,17q0,.19,0,.39a4.62,4.62,0,0,0,1.05,3.14.77.77,0,0,1,.23.89c-.08.29-.25,1-.32,1.3a.55.55,0,0,1-.63.46l-.17-.05c-2.24-.91-3.25-3.36-3.25-6.12,0-4.55,3.83-10,11.44-10,6.11,0,10.13,4.42,10.13,9.17,0,6.28-3.49,11-8.63,11a4.56,4.56,0,0,1-3.9-2s-.93,3.69-1.12,4.4A13.38,13.38,0,0,1,15.38,33,16,16,0,1,0,19.93,1.64Z"/></g></svg>