<?xml version="1.0" encoding="utf-8"?>
<!-- Generator: Adobe Illustrator 20.1.0, SVG Export Plug-In . SVG Version: 6.00 Build 0)  -->
<svg version="1.1" id="Слой_3" xmlns="http://www.w3.org/2000/svg" xmlns:xlink="http://www.w3.org/1999/xlink" x="0px" y="0px"
	 viewBox="0 0 20.3 37.3" style="enable-background:new 0 0 20.3 37.3;" xml:space="preserve">
<style type="text/css">
	.st0{fill:#D82727;}
	.st1{fill:#FFFFFF;}
</style>
<title>Монтажная область 1</title>
<g id="Слой_8">
	<path class="st0" d="M3.2,35V21.6H1.9c-1.1-0.1-1.9-0.9-1.9-2v-5.3c0-0.8,0.3-1.5,0.9-2c0.5-0.5,1.2-1.4,1.5-1.6
		c0.2-0.2,0.5-0.3,0.8-0.4c0-1.6,0.3-3.1,1.1-4.5c0.9-1.4,2-2.7,3.2-3.8c1.4-1.2,3.2-1.9,5-2H18c1.1-0.2,2,0.5,2.2,1.6
		c0,0.2,0,0.4,0,0.6v4.7c0.1,0.7-0.2,1.4-0.6,1.8l-1.2,1.3c1.1,0,2,0.9,2,2c0,0.1,0,0.2,0,0.3c-0.2,1.4-0.5,4.4-0.5,5
		c0,0.5-0.2,1-0.5,1.4c-0.3,0.3-1.4,1.6-1.9,2.1c-0.4,0.4-1,0.6-1.6,0.6h-0.5V33c0,0.5-0.1,1-0.4,1.5c-0.3,0.4-1.6,1.8-2.1,2.3
		c-0.5,0.4-1.1,0.6-1.7,0.5H5.3c-1.1,0.1-2.1-0.7-2.2-1.8C3.1,35.3,3.1,35.2,3.2,35z"/>
	<path class="st1" d="M18.4,12h-5V8.8c-0.1-0.7,0.4-1.4,1.1-1.5c0.1,0,0.2,0,0.3,0h3.5V1.9h-4.8c-5.4,0-6.6,4-6.6,6.6v3.6H3.8v5.5
		h3.1v15.7h6.5V17.6h4.4L18.4,12z"/>
</g>
</svg>
