<?xml version="1.0" encoding="utf-8"?>
<!-- Generator: Adobe Illustrator 20.1.0, SVG Export Plug-In . SVG Version: 6.00 Build 0)  -->
<svg version="1.1" id="Слой_1" xmlns="http://www.w3.org/2000/svg" xmlns:xlink="http://www.w3.org/1999/xlink" x="0px" y="0px"
	 viewBox="0 0 37.5 37.4" style="enable-background:new 0 0 37.5 37.4;" xml:space="preserve">
<style type="text/css">
	.st0{fill:#D82727;}
	.st1{fill:#FFFFFF;}
</style>
<title>Монтажная область 1</title>
<g id="Слой_1-2">
	<path class="st0" d="M7.2,5L4.7,7.6c-6.7,7-6.1,18.5,1.1,25.1c5,5,14.8,7,23.2,1c1.2-1.1,2.4-2.2,3.5-3.4c7-7,7-18.3,0-25.3
		S14.2-2,7.2,5L7.2,5z"/>
	<path class="st1" d="M19.9,1.6c-8.8,0-16,7.1-16,16c0,6.4,3.8,12.2,9.6,14.7c-0.1-1.2,0-2.5,0.3-3.7l2.1-8.7
		c-0.3-0.8-0.5-1.7-0.5-2.5c0-2.4,1.4-4.1,3.1-4.1c1.2,0,2.2,0.9,2.2,2.1c0,0.1,0,0.2,0,0.3c0,1.5-0.9,3.6-1.4,5.7
		c-0.3,1.3,0.5,2.7,1.8,3c0.2,0.1,0.5,0.1,0.7,0.1c3,0,5.1-3.9,5.1-8.5c0-3.5-2.4-6.1-6.7-6.1c-4.2-0.2-7.7,3.1-7.9,7.3
		c0,0.1,0,0.3,0,0.4c0,1.1,0.3,2.3,1.1,3.1c0.3,0.2,0.4,0.6,0.2,0.9c-0.1,0.3-0.3,1-0.3,1.3c0,0.3-0.3,0.5-0.6,0.5c0,0,0,0,0,0
		l-0.2,0c-2.2-0.9-3.3-3.4-3.3-6.1c0-4.6,3.8-10,11.4-10c6.1,0,10.1,4.4,10.1,9.2c0,6.3-3.5,11-8.6,11c-1.6,0-3-0.7-3.9-2
		c0,0-0.9,3.7-1.1,4.4c-0.4,1.2-0.9,2.4-1.6,3.4c8.5,2.5,17.4-2.4,19.8-10.9S32.8,4.8,24.3,2.3C22.9,1.9,21.4,1.6,19.9,1.6L19.9,1.6
		z"/>
</g>
</svg>
