<?xml version="1.0" encoding="utf-8"?>
<!-- Generator: Adobe Illustrator 20.1.0, SVG Export Plug-In . SVG Version: 6.00 Build 0)  -->
<svg version="1.1" id="Слой_4" xmlns="http://www.w3.org/2000/svg" xmlns:xlink="http://www.w3.org/1999/xlink" x="0px" y="0px"
	 viewBox="0 0 36.4 36.4" style="enable-background:new 0 0 36.4 36.4;" xml:space="preserve">
<style type="text/css">
	.st0{fill:#D82727;}
	.st1{fill:#FFFFFF;}
</style>
<title>Монтажная область 1</title>
<path class="st0" d="M29.4,0H9.1C7.2,0.1,5.4,0.9,4.2,2.3C2.8,3.6,2.6,3.8,1.6,4.9C0.6,6.1,0.1,7.5,0,9.1v20.8
	c0,3.6,2.9,6.5,6.5,6.5h20.8c1.7,0,3.4-0.7,4.6-1.9c1-1.1,1.9-1.9,2.9-2.9c1-1.2,1.5-2.7,1.6-4.3V6.5C36.4,2.9,33.4,0,29.4,0z"/>
<g id="Слой_4-2">
	<path class="st1" d="M28.9,1.6H10.1c-3.3,0-5.9,2.6-5.9,5.9v18.7c0,3.3,2.6,5.9,5.9,5.9h18.8c3.3,0,5.9-2.6,5.9-5.9V7.5
		C34.8,4.3,32.1,1.6,28.9,1.6z M30.6,5.1h0.7v5.2h-5.2V5.1H30.6z M15.2,13.8c1.7-2.4,5.1-3,7.5-1.2s3,5.1,1.2,7.5
		c-1.7,2.4-5.1,3-7.5,1.2c-1.4-1-2.2-2.6-2.2-4.4C14.1,15.8,14.5,14.7,15.2,13.8z M31.8,26.3c0,1.6-1.3,2.9-2.9,2.9l0,0H10.1
		c-1.6,0-2.9-1.3-2.9-2.9l0,0V13.8h4.6c-1.7,4.3,0.3,9.1,4.6,10.9c4.3,1.7,9.1-0.3,10.9-4.6c0.8-2,0.8-4.3,0-6.3h4.6L31.8,26.3z"/>
</g>
</svg>
