<svg id="Слой_4" data-name="Слой 4" xmlns="http://www.w3.org/2000/svg" viewBox="0 0 36.41 36.37"><defs><style>.cls-1{fill:#fff;}</style></defs><title>Монтажная область 1</title><path d="M29.37,0H9.09A6.93,6.93,0,0,0,4.16,2.26C2.78,3.62,2.62,3.77,1.6,4.88A7.14,7.14,0,0,0,0,9.08V29.83a6.6,6.6,0,0,0,6.54,6.54H27.29a6.66,6.66,0,0,0,4.59-1.94c1-1.09,1.89-1.86,2.91-2.91a7.18,7.18,0,0,0,1.61-4.25V6.51C36.41,2.88,33.43,0,29.37,0Z"/><g id="Слой_4-2" data-name="Слой 4"><path class="cls-1" d="M28.86,1.62H10.12a5.91,5.91,0,0,0-5.9,5.9V26.26a5.91,5.91,0,0,0,5.9,5.9H28.87a5.91,5.91,0,0,0,5.9-5.9V7.52A5.91,5.91,0,0,0,28.86,1.62Zm1.69,3.51h.68v5.18H26.07V5.13Zm-15.4,8.63a5.37,5.37,0,1,1-1,3.14,5.37,5.37,0,0,1,1-3.14ZM31.79,26.27a2.93,2.93,0,0,1-2.93,2.93H10.12A2.93,2.93,0,0,1,7.2,26.27h0V13.76h4.57a8.35,8.35,0,1,0,15.47,0h4.56Z"/></g></svg>