<svg id="Слой_5" data-name="Слой 5" xmlns="http://www.w3.org/2000/svg" viewBox="0 0 37.77 31.38"><defs><style>.cls-1{fill:#fff;}</style></defs><title>Монтажная область 1</title><g id="Слой_10" data-name="Слой 10"><path d="M.45,25.71c.8-.67,2.11-1.89,2.7-2.27a1.93,1.93,0,0,1,1.4-.32c.57,0,.69,0,1.06,0a7.45,7.45,0,0,1-1.87-3c-.26-.84-.07-1,0-1.26a8.2,8.2,0,0,1-2.48-6A1.74,1.74,0,0,1,2,11.5a8.55,8.55,0,0,1-.69-3.57A12.38,12.38,0,0,1,2.2,4.71a3.72,3.72,0,0,1,1-1.3c.37-.29,1.65-1.36,2.06-1.73a1.67,1.67,0,0,1,2.49.17c4.06,4.69,8.37,5.54,8.37,5.54a12.62,12.62,0,0,1,1.75-2.72c.69-.59,3.16-2.7,3.7-3.14a8.21,8.21,0,0,1,10,.37A11.31,11.31,0,0,0,34.38.77a1.65,1.65,0,0,1,2.19,2.4c1.66.34,1.25,1.92.84,2.65A29.1,29.1,0,0,1,34.58,8.9a20.55,20.55,0,0,1-6.91,15.44c-.65.56-3.33,2.77-4.43,3.6a20.3,20.3,0,0,1-12,3.42,19.86,19.86,0,0,1-10.32-3A1.67,1.67,0,0,1,.45,25.71Z"/><path class="cls-1" d="M36.19,4.75a13.07,13.07,0,0,1-3.78,1A6.58,6.58,0,0,0,35.3,2.15a13.15,13.15,0,0,1-4.17,1.59,6.58,6.58,0,0,0-11.19,6A18.65,18.65,0,0,1,6.4,2.87a6.58,6.58,0,0,0,2,8.77,6.55,6.55,0,0,1-3-.82v.08a6.57,6.57,0,0,0,5.27,6.44A6.6,6.6,0,0,1,9,17.58a6.5,6.5,0,0,1-1.23-.12A6.58,6.58,0,0,0,13.9,22a13.25,13.25,0,0,1-9.75,2.72,18.59,18.59,0,0,0,10.07,3c12.08,0,18.69-10,18.69-18.69V8.14A13.31,13.31,0,0,0,36.19,4.75Z"/></g></svg>