<svg id="Слой_2" data-name="Слой 2" xmlns="http://www.w3.org/2000/svg" viewBox="0 0 26.8 17.56"><title>Монтажная область 1</title><path d="M22.32,17.56H4.42l-.12-.46C3.22,13.13.33,2.51,0,1.16,0,.91.09.42.24.37.76.2,1.28-.21,1.87.16A.39.39,0,0,1,2,.41,1.86,1.86,0,0,0,3.36,2.1c.54.18.95.76,1.39,1.2.77.76,1.13.76,1.89,0l.59-.6a3,3,0,0,1,4.52,0l.54.56c.79.82,1.15.82,1.92,0l.59-.6a3,3,0,0,1,4.48,0c.28.28.55.58.84.86a.89.89,0,0,0,1.41,0,9.37,9.37,0,0,1,.8-.81,5.82,5.82,0,0,1,1.46-.88A1.07,1.07,0,0,0,24.6,1c.27-1.13.29-1.12,1.4-.82l.17.06c.65.18.73.33.56,1Zm-1.61-2.19L23.62,4.56l-.14-.11A5.35,5.35,0,0,1,23,5,3,3,0,0,1,18.6,5c-.28-.28-.55-.58-.84-.86a1,1,0,0,0-1.47,0c-.24.24-.47.49-.71.73a3.05,3.05,0,0,1-4.65,0c-.25-.26-.49-.53-.75-.77a1,1,0,0,0-1.43,0c-.3.29-.58.61-.88.9a2.67,2.67,0,0,1-2.61.84,12.63,12.63,0,0,1-2-.85L6,15.37Z"/><path d="M18.57,10.68a15.34,15.34,0,0,1-.34,1.67,2,2,0,0,1-1.94,1.49,2,2,0,0,1-2.11-1.42,4.84,4.84,0,0,1,.08-3.62,2.08,2.08,0,0,1,2-1.31,2,2,0,0,1,2,1.4A14.15,14.15,0,0,1,18.57,10.68Zm-1.43,0a10.86,10.86,0,0,0-.29-1.59.89.89,0,0,0-.62-.53.87.87,0,0,0-.64.49,4.48,4.48,0,0,0,0,3.19.88.88,0,0,0,.66.45.79.79,0,0,0,.58-.46A11.8,11.8,0,0,0,17.13,10.72Z"/><path d="M8.93,12.46a11.67,11.67,0,0,0,1.48.28.94.94,0,0,0,1.1-.77c0-.48-.32-.82-1-.92L9.74,11a2.73,2.73,0,0,1,0-.29c0-.2,0-.4,0-.65a6.07,6.07,0,0,0,.84,0c.41-.08.83-.25.8-.74s-.46-.63-.89-.59-.85.14-1.33.23L8.85,8A3.52,3.52,0,0,1,12,7.79,1.29,1.29,0,0,1,12.78,9a1.44,1.44,0,0,1-1,1.44,1.22,1.22,0,0,0,.21.15,1.44,1.44,0,0,1,1,1.27,1.58,1.58,0,0,1-.83,1.6A3.68,3.68,0,0,1,9,13.57a.48.48,0,0,1-.21-.4A3.75,3.75,0,0,1,8.93,12.46Z"/></svg>