<svg id="Слой_3" data-name="Слой 3" xmlns="http://www.w3.org/2000/svg" viewBox="0 0 25.21 23.55"><title>Монтажная область 1</title><path d="M.65,21.28c-.57-.62-.31-1.23,0-1.85,1.4-2.39,2.78-4.8,4.17-7.2l.24-.44L.65,9c-.72-.45-.73-.51-.3-1.21C1,6.74,1,6.74,2.12,7.43l4,2.53L8.58,5.79c1-1.66,2-3.29,2.85-5a1.26,1.26,0,0,1,2.36,0c1.6,2.9,3.29,5.75,4.94,8.61.11.19.23.37.36.57l4.46-2.75c.68-.42.78-.4,1.21.31L25,8c.31.46.23.77-.27,1.06-1.53.9-3,1.85-4.61,2.82l1.76,3.06c.9,1.56,1.78,3.12,2.7,4.66a1.27,1.27,0,0,1-.12,1.78,2.39,2.39,0,0,1,.45.33c.58.71-.27,1-.44,1.53-.12.35-.43.43-.78.2-.8-.52-1.61-1-2.44-1.52a2.26,2.26,0,0,0-1.06-.31q-7.63,0-15.26,0a2.6,2.6,0,0,0-1.17.33c-.79.43-1.54.92-2.3,1.4a.56.56,0,0,1-.9-.2l-.21-.36C-.16,21.9-.16,21.9.65,21.28ZM17.26,11.13,12.61,3.07,8,11.09c1.5.94,3,1.86,4.44,2.76a.49.49,0,0,0,.42,0C14.31,12.94,15.77,12,17.26,11.13ZM18.33,13,14.71,15.2c.07.08.09.14.14.17,2.11,1.32,4.22,2.65,6.34,4a3.58,3.58,0,0,0,.93.22Zm-7.75,2.25L6.92,12.94,3.19,19.39l.08.13A3.92,3.92,0,0,0,4,19.26c1.06-.63,2.11-1.28,3.16-1.93Zm6.55,4.22,0-.11c-1.45-.91-2.89-1.82-4.35-2.7a.7.7,0,0,0-.57.09c-1.32.79-2.62,1.59-3.93,2.39-.12.08-.23.17-.44.33Z"/></svg>