<svg id="Слой_5" data-name="Слой 5" xmlns="http://www.w3.org/2000/svg" viewBox="0 0 26.03 23.44"><title>Монтажная область 1</title><path d="M3.62,18.78,1.54,20.07a.56.56,0,0,1-.91-.22c-.81-1.39-1-1.19.48-2.1l1.38-.86a11.75,11.75,0,0,1-1.15-6.07A10.6,10.6,0,0,1,2.31,7c.19-.41.12-.61-.27-.82S1,5.52.52,5.21,0,4.69.28,4.25c.93-1.41.67-1.36,2-.51l1.34.84A11.69,11.69,0,0,1,13,0a11.67,11.67,0,0,1,9.4,4.65l1.92-1.18c.65-.39.77-.36,1.17.27.77,1.21.7,1.18-.44,1.85-.49.29-1,.6-1.5.93a12.55,12.55,0,0,1,1.18,5.21A12.37,12.37,0,0,1,23.54,17c.65.41,1.29.84,2,1.23.48.28.54.57.24,1-.76,1.22-.75,1.23-2,.46l-1.37-.85A11.65,11.65,0,0,1,13,23.44,11.67,11.67,0,0,1,3.62,18.78Zm2-13c2.41,1.51,4.77,3,7.16,4.46a.7.7,0,0,0,.59,0c.73-.42,1.45-.87,2.16-1.31l5-3.07A9.44,9.44,0,0,0,5.62,5.8ZM5.53,17.61c4.4,5.43,12,4.22,14.86.05,0,0,0,0,0-.05-2.37-1.49-4.73-3-7.11-4.45a.72.72,0,0,0-.59.08c-.78.45-1.55.93-2.32,1.41ZM4.37,15.74l6.57-4L4.4,7.63A9.52,9.52,0,0,0,4.37,15.74Zm10.74-4,6.56,4.09a9.75,9.75,0,0,0,0-8.13Z"/></svg>