<svg id="Слой_4" data-name="Слой 4" xmlns="http://www.w3.org/2000/svg" viewBox="0 0 28 13.95"><title>Монтажная область 1</title><path d="M28,12.62v.24A1.51,1.51,0,0,1,26.31,14q-12.34,0-24.69,0H1.2A1.28,1.28,0,0,1,0,12.45a10.47,10.47,0,0,1,4.25-7,2,2,0,0,1,1.08-.35c6.15,0,12.29,0,18.44,0h.72L24,2.16H8a1,1,0,0,1-.68-.22A2.05,2.05,0,0,1,7.57,0H25a1.69,1.69,0,0,1,1,1.32q.66,4.05,1.36,8.1C27.58,10.49,27.8,11.55,28,12.62ZM2.34,11.75h23.3l-.77-4.51-.26,0H5.76a.85.85,0,0,0-.5.12A8.36,8.36,0,0,0,2.34,11.75Z"/><path d="M14,10.71a1.09,1.09,0,0,1-1.14-1.12A1.13,1.13,0,0,1,14,8.46a1.2,1.2,0,0,1,1.13,1.11A1.13,1.13,0,0,1,14,10.71Z"/></svg>